# Blender v2.64 (sub 2) OBJ File: ''
# www.blender.org
mtllib peach.mtl
o polygon0
v 0.156943 1.065592 -0.168626
v 0.234654 0.888332 0.103107
v 0.001015 0.868523 -0.131547
v 0.001015 0.748657 0.016254
v -0.148309 1.065592 -0.168626
v -0.233639 0.887317 0.101074
v 0.187419 0.780148 -0.615077
v 0.000000 1.323101 -0.265127
v 0.115295 1.120954 -0.203670
v 0.000000 1.184951 -0.047235
v -0.115295 1.120954 -0.203670
v 0.000000 1.323101 -0.265127
v -0.210274 0.845160 -0.624220
v 0.118343 1.101654 -0.141198
v -0.118343 1.101654 -0.141198
v 0.000000 1.231678 -0.206718
v 0.000000 1.256566 -0.041647
v 0.118343 1.101654 -0.141198
v 0.000000 1.414019 0.236687
v -0.153387 1.414019 0.083805
v 0.000000 0.819765 0.079234
v 0.000000 1.414019 -0.069583
v 0.153387 1.414019 0.083805
v 0.149324 1.151937 0.350965
v 0.120374 1.271803 0.310333
v 0.000000 1.121971 0.444420
v -0.120374 1.271803 0.310333
v -0.149324 1.151937 0.350965
v 0.129517 1.054418 0.304745
v 0.149324 1.151937 0.350965
v 0.000000 0.962486 0.366201
v 0.000000 1.121971 0.444420
v -0.149324 1.151937 0.350965
v -0.140183 0.762371 0.156435
v -0.142723 0.853286 0.242780
v -0.233639 0.887317 0.101074
v -0.183863 1.047308 0.214337
v 0.000000 0.266145 0.166086
v 0.130025 0.457626 0.241257
v -0.130025 0.457626 0.241257
v 0.000000 0.671963 0.179293
v 0.173705 0.548034 -0.050283
v 0.077711 0.721231 0.009651
v 0.130025 0.457626 0.241257
v 0.000000 0.671963 0.179293
v 0.000000 0.266145 0.166086
v 0.359091 -0.005588 0.185386
v 0.138151 0.313380 -0.009143
v 0.343854 -0.004571 -0.245828
v -0.343854 -0.004571 -0.245828
v -0.359091 -0.005588 0.185386
v -0.138151 0.313380 -0.009143
v 0.000000 0.266145 0.166086
v 0.000000 0.671963 0.179293
v -0.077711 0.721231 0.009651
v -0.130025 0.457626 0.241257
v -0.173705 0.548034 -0.050283
v -0.132565 0.844145 -0.414454
v -0.012699 0.903062 -0.510447
v -0.044695 0.515528 -0.438324
v 0.121391 0.806051 -0.418517
v -0.250398 0.428168 0.305762
v -0.194529 0.665868 -0.053838
v -0.337251 0.364678 0.263097
v -0.236686 0.326584 0.259542
v 0.250398 0.428168 0.305762
v 0.337251 0.364678 0.263097
v 0.194529 0.665868 -0.053838
v 0.236686 0.326584 0.259542
v -0.247350 0.722754 0.068568
v -0.188434 0.719198 0.191482
v -0.183863 0.822305 0.133073
v -0.130025 0.722754 0.068568
v 0.247350 0.722754 0.068568
v 0.183863 0.822305 0.133073
v 0.188434 0.719198 0.191482
v 0.130025 0.722754 0.068568
v -0.062472 0.799955 0.040125
v 0.000000 0.284937 0.013206
v 0.000000 0.734943 0.175737
v 0.062472 0.799955 0.040125
v 0.140183 0.762371 0.156435
v 0.234654 0.888332 0.103107
v 0.142723 0.853286 0.242780
v 0.183863 1.047308 0.214337
v 0.001015 0.868523 -0.131547
v -0.148309 1.065592 -0.168626
v 0.156943 1.065592 -0.168626
v 0.000000 1.248440 -0.053331
v -0.129517 1.054418 0.304745
v -0.149324 1.151937 0.350965
v -0.273763 1.090988 0.181831
v -0.233639 0.887317 0.101074
v -0.077711 0.721231 0.009651
v 0.077711 0.721231 0.009651
v 0.173705 0.548034 -0.050283
v -0.173705 0.548034 -0.050283
v 0.273763 1.090988 0.181831
v 0.149324 1.151937 0.350965
v 0.129517 1.054418 0.304745
v 0.234654 0.888332 0.103107
v 0.138151 0.313380 -0.009143
v -0.138151 0.313380 -0.009143
v -0.173705 0.548034 -0.050283
v 0.173705 0.548034 -0.050283
v -0.129517 1.054418 0.304745
v 0.000000 0.962486 0.366201
v -0.149324 1.151937 0.350965
v -0.343854 -0.004571 -0.245828
v -0.138151 0.313380 -0.009143
v 0.000000 0.004063 -0.408866
v -0.367726 1.130605 0.077711
v -0.273763 1.090988 0.181831
v -0.210274 1.191554 0.101582
v -0.273763 1.090988 0.181831
v -0.149324 1.151937 0.350965
v -0.120374 1.271803 0.310333
v 0.273763 1.090988 0.181831
v 0.120374 1.271803 0.310333
v 0.149324 1.151937 0.350965
v -0.044695 0.515528 -0.438324
v 0.115295 1.120954 -0.203670
v -0.115295 1.120954 -0.203670
v -0.130025 0.376360 0.599840
v -0.236686 0.326584 0.259542
v -0.250398 0.428168 0.305762
v -0.236686 0.326584 0.259542
v -0.130025 0.376360 0.599840
v -0.273763 0.336235 0.621172
v -0.132565 0.844145 -0.414454
v -0.044695 0.515528 -0.438324
v -0.115295 1.120954 -0.203670
v -0.273763 0.336235 0.621172
v -0.130025 0.376360 0.599840
v -0.228051 0.478449 0.633871
v -0.250398 0.428168 0.305762
v -0.236686 0.326584 0.259542
v -0.194529 0.665868 -0.053838
v -0.236686 0.326584 0.259542
v -0.273763 0.336235 0.621172
v -0.337251 0.364678 0.263097
v -0.228051 0.478449 0.633871
v -0.250398 0.428168 0.305762
v -0.337251 0.364678 0.263097
v -0.130025 0.376360 0.599840
v -0.250398 0.428168 0.305762
v -0.228051 0.478449 0.633871
v -0.198085 0.687200 -0.074153
v -0.237702 0.442897 -0.038602
v -0.377885 0.598317 0.052823
v -0.377885 0.598317 0.052823
v -0.237702 0.442897 -0.038602
v -0.247350 0.461182 0.197070
v -0.222465 0.702946 0.176245
v -0.247350 0.461182 0.197070
v -0.016762 0.550064 0.090915
v 0.000000 1.248440 -0.053331
v -0.120374 1.271803 0.310333
v 0.120374 1.271803 0.310333
v 0.000000 0.819765 0.079234
v 0.153387 1.414019 0.083805
v 0.000000 1.414019 0.236687
v 0.000000 1.248440 -0.053331
v 0.120374 1.271803 0.310333
v 0.210274 1.191554 0.101582
v -0.138151 0.313380 -0.009143
v -0.130025 0.457626 0.241257
v -0.173705 0.548034 -0.050283
v 0.247350 0.461182 0.197070
v 0.016762 0.550064 0.090915
v 0.237702 0.442897 -0.038602
v 0.016762 0.550064 0.090915
v 0.222465 0.702946 0.176245
v 0.198085 0.687200 -0.074153
v 0.377885 0.598317 0.052823
v 0.198085 0.687200 -0.074153
v 0.222465 0.702946 0.176245
v 0.222465 0.702946 0.176245
v 0.247350 0.461182 0.197070
v 0.377885 0.598317 0.052823
v 0.016762 0.550064 0.090915
v 0.198085 0.687200 -0.074153
v 0.237702 0.442897 -0.038602
v 0.000000 0.266145 0.166086
v -0.246335 -0.005588 0.688725
v 0.246335 -0.005588 0.688725
v -0.359091 -0.005588 0.185386
v -0.246335 -0.005588 0.688725
v 0.000000 0.266145 0.166086
v 0.000000 0.266145 0.166086
v 0.246335 -0.005588 0.688725
v 0.359091 -0.005588 0.185386
v -0.210274 1.191554 0.101582
v 0.000000 1.248440 -0.053331
v -0.148309 1.065592 -0.168626
v 0.138151 0.313380 -0.009143
v 0.130025 0.457626 0.241257
v 0.000000 0.266145 0.166086
v 0.138151 0.313380 -0.009143
v 0.173705 0.548034 -0.050283
v 0.130025 0.457626 0.241257
v -0.138151 0.313380 -0.009143
v 0.000000 0.266145 0.166086
v -0.130025 0.457626 0.241257
v 0.000000 0.004063 -0.408866
v 0.138151 0.313380 -0.009143
v 0.343854 -0.004571 -0.245828
v 0.138151 0.313380 -0.009143
v 0.000000 0.004063 -0.408866
v -0.138151 0.313380 -0.009143
v 0.121391 0.806051 -0.418517
v 0.187419 0.780148 -0.615077
v 0.115295 1.120954 -0.203670
v 0.210274 1.191554 0.101582
v 0.273763 1.090988 0.181831
v 0.367726 1.130605 0.077711
v 0.210274 1.191554 0.101582
v 0.120374 1.271803 0.310333
v 0.273763 1.090988 0.181831
v 0.367726 1.130605 0.077711
v 0.156943 1.065592 -0.168626
v 0.210274 1.191554 0.101582
v -0.120374 1.271803 0.310333
v 0.000000 1.248440 -0.053331
v -0.210274 1.191554 0.101582
v 0.000000 1.248440 -0.053331
v 0.210274 1.191554 0.101582
v 0.156943 1.065592 -0.168626
v -0.132565 0.844145 -0.414454
v -0.115295 1.120954 -0.203670
v -0.210274 0.845160 -0.624220
v 0.234654 0.888332 0.103107
v 0.156943 1.065592 -0.168626
v 0.367726 1.130605 0.077711
v -0.183863 0.822305 0.133073
v -0.130025 0.722754 0.068568
v -0.247350 0.722754 0.068568
v -0.210274 1.191554 0.101582
v -0.273763 1.090988 0.181831
v -0.120374 1.271803 0.310333
v -0.233639 0.887317 0.101074
v -0.367726 1.130605 0.077711
v -0.148309 1.065592 -0.168626
v 0.183863 0.822305 0.133073
v 0.247350 0.722754 0.068568
v 0.130025 0.722754 0.068568
v -0.228051 0.478449 0.633871
v -0.337251 0.364678 0.263097
v -0.273763 0.336235 0.621172
v -0.148309 1.065592 -0.168626
v -0.367726 1.130605 0.077711
v -0.210274 1.191554 0.101582
v 0.367726 1.130605 0.077711
v 0.273763 1.090988 0.181831
v 0.234654 0.888332 0.103107
v 0.000000 1.323101 -0.265127
v -0.012699 0.903062 -0.510447
v -0.210274 0.845160 -0.624220
v 0.187419 0.780148 -0.615077
v -0.012699 0.903062 -0.510447
v 0.000000 1.323101 -0.265127
v -0.367726 1.130605 0.077711
v -0.233639 0.887317 0.101074
v -0.273763 1.090988 0.181831
v -0.247350 0.461182 0.197070
v -0.237702 0.442897 -0.038602
v -0.016762 0.550064 0.090915
v -0.016762 0.550064 0.090915
v -0.198085 0.687200 -0.074153
v -0.222465 0.702946 0.176245
v -0.377885 0.598317 0.052823
v -0.222465 0.702946 0.176245
v -0.198085 0.687200 -0.074153
v -0.222465 0.702946 0.176245
v -0.377885 0.598317 0.052823
v -0.247350 0.461182 0.197070
v -0.016762 0.550064 0.090915
v -0.237702 0.442897 -0.038602
v -0.198085 0.687200 -0.074153
v 0.130025 0.376360 0.599840
v 0.250398 0.428168 0.305762
v 0.236686 0.326584 0.259542
v 0.236686 0.326584 0.259542
v 0.273763 0.336235 0.621172
v 0.130025 0.376360 0.599840
v 0.228051 0.478449 0.633871
v 0.273763 0.336235 0.621172
v 0.337251 0.364678 0.263097
v -0.132565 0.844145 -0.414454
v -0.210274 0.845160 -0.624220
v -0.012699 0.903062 -0.510447
v 0.273763 0.336235 0.621172
v 0.228051 0.478449 0.633871
v 0.130025 0.376360 0.599840
v 0.250398 0.428168 0.305762
v 0.194529 0.665868 -0.053838
v 0.236686 0.326584 0.259542
v 0.236686 0.326584 0.259542
v 0.337251 0.364678 0.263097
v 0.273763 0.336235 0.621172
v 0.228051 0.478449 0.633871
v 0.337251 0.364678 0.263097
v 0.250398 0.428168 0.305762
v 0.130025 0.376360 0.599840
v 0.228051 0.478449 0.633871
v 0.250398 0.428168 0.305762
v 0.198085 0.687200 -0.074153
v 0.377885 0.598317 0.052823
v 0.237702 0.442897 -0.038602
v 0.377885 0.598317 0.052823
v 0.247350 0.461182 0.197070
v 0.237702 0.442897 -0.038602
v 0.222465 0.702946 0.176245
v 0.016762 0.550064 0.090915
v 0.247350 0.461182 0.197070
v -0.044695 0.515528 -0.438324
v 0.121391 0.806051 -0.418517
v 0.115295 1.120954 -0.203670
v 0.121391 0.806051 -0.418517
v -0.012699 0.903062 -0.510447
v 0.187419 0.780148 -0.615077
vt 0.345215 -0.865234
vt 0.379883 -1.201172
vt 0.368652 -1.065430
vt 0.388184 -1.270508
vt 0.751953 -0.052734
vt 0.757324 0.054688
vt 0.739746 0.044922
vt 0.729980 0.076172
vt 0.756836 -0.046875
vt 0.105469 -0.023438
vt 0.121094 0.000000
vt 0.105469 0.020508
vt 0.500000 0.000000
vt 0.500000 -0.250000
vt 0.104004 -0.125000
vt 0.293457 -0.024414
vt 0.289062 0.026367
vt 0.269531 -0.036133
vt 0.250000 0.026367
vt 0.245117 -0.024414
vt 0.345215 -0.001953
vt 0.287109 0.124023
vt 0.277832 -0.169922
vt 0.238281 0.000000
vt 0.515137 0.611328
vt 0.439941 0.479492
vt 0.448242 0.746094
vt 0.295898 0.629883
vt 0.225098 -0.999023
vt 0.115234 -0.865234
vt 0.115234 -1.132812
vt 0.010742 -1.000000
vt 0.156738 -1.169922
vt 0.000000 -1.000977
vt 0.000000 -1.167969
vt -0.086914 -0.176758
vt -0.134277 -0.576172
vt 0.045898 -0.177734
vt 0.086426 -0.568359
vt 0.609375 -0.068359
vt 0.611816 -0.243164
vt 0.619629 -0.112305
vt 0.176758 -0.432617
vt 0.537109 -0.500000
vt 0.160156 -0.499023
vt 0.158203 -0.584961
vt 0.114746 0.028320
vt 0.107422 0.000977
vt 0.101074 0.028320
vt 0.466797 -0.492188
vt 0.500000 -0.558594
vt 0.500000 -0.500000
vt 0.532715 -0.492188
vt 0.325195 0.125977
vt 0.318359 0.231445
vt 0.374023 0.117188
vt 0.380371 0.249023
vt 0.330566 -0.958008
vt 0.316895 -1.030273
vt 0.229492 -1.032227
vt 0.290039 -0.834961
vt 0.001465 -0.902344
vt 0.001465 -0.844727
vt 0.153320 -0.840820
vt 0.153320 -0.929688
vt 0.223633 -0.845703
vt 0.223633 -1.153320
vt 0.158691 -1.204102
vt 0.158691 -0.794922
vt 0.152832 -0.450195
vt 0.003418 -0.226562
vt 0.081543 -0.639648
vt -0.243652 -0.224609
vt -0.317871 -0.089844
vt -0.228516 -0.086914
vt -0.304688 0.119141
vt -0.297852 0.243164
vt -0.227051 0.212891
vt 0.720215 -0.049805
vt 0.310059 -0.321289
vt 0.249512 -0.333008
vt 0.249512 -0.271484
vt 0.298340 -0.410156
vt 0.157715 -0.428711
vt 0.158203 -0.367188
vt -0.333008 -0.919922
vt -0.388672 -0.895508
vt -0.241211 -0.776367
vt 0.199219 -0.354492
vt 0.156738 -0.304688
vt 0.197266 -0.251953
vt 0.182129 -0.427734
vt 0.164062 -0.570312
vt 0.510742 -0.500000
vt 0.145996 -0.088867
vt 0.145508 0.089844
vt 0.205566 -0.003906
vt 0.166016 -0.171875
vt 0.166016 0.006836
vt 0.226074 -0.085938
vt 0.337402 0.059570
vt 0.277344 0.234375
vt 0.244141 0.155273
vt 0.369629 0.227539
vt 0.287109 0.190430
vt 0.362793 0.096680
vt 0.223145 -0.793945
vt 0.172852 -0.805664
vt 0.177246 -0.769531
vt 0.040039 -0.566406
vt -0.040039 -0.566406
vt 0.000000 -0.436523
vt 0.197266 0.026367
vt 0.204102 -0.214844
vt 0.148438 -0.094727
vt 0.307129 0.216797
vt 0.369629 0.233398
vt 0.388184 0.091797
vt 0.224609 -0.824219
vt 0.145508 -0.913086
vt 0.225586 -0.999023
vt 0.224609 -1.173828
vt 0.145508 -1.084961
vt 0.043457 -0.182617
vt 0.097656 -0.633789
vt 0.151855 -0.182617
vt 0.658203 0.000000
vt 0.693359 -0.027344
vt 0.751465 0.213867
vt -0.273926 -0.078125
vt -0.228516 0.171875
vt -0.315918 0.094727
vt -0.279785 -1.038086
vt -0.255371 -0.945312
vt -0.247070 -1.041992
vt -0.309082 -0.928711
vt -0.275391 -1.105469
vt -0.301758 -1.033203
vt 0.072266 0.000000
vt 0.083496 -0.012695
vt 0.083496 0.012695
vt 0.194336 -0.251953
vt 0.294434 -0.337891
vt 0.195312 -0.354492
vt -0.274414 -0.207031
vt -0.335449 -0.079102
vt -0.359375 -0.205078
vt 0.623535 -0.022461
vt 0.615234 -0.223633
vt 0.613281 -0.005859
vt 0.641113 0.075195
vt 0.684082 0.247070
vt 0.626953 0.247070
vn 0.601501 -0.579407 -0.549985
vn 0.572624 -0.636742 -0.516393
vn -0.655771 -0.586367 -0.475540
vn -0.560497 -0.598177 -0.572736
vn 0.875531 0.436175 -0.207836
vn 0.766991 0.541914 0.343591
vn 0.000000 -0.925545 0.378637
vn -0.766991 0.541914 0.343591
vn -0.877351 0.467443 -0.108402
vn 0.000000 -0.450000 -0.893028
vn -0.759890 0.642787 -0.096913
vn 0.759890 0.642787 -0.096913
vn -0.693827 -0.184443 0.696121
vn -0.696275 -0.174365 -0.696275
vn 0.696275 -0.174365 -0.696275
vn 0.434178 0.381492 0.816059
vn -0.000000 0.666870 0.745174
vn -0.434178 0.381492 0.816059
vn 0.619169 -0.435472 0.653448
vn 0.545153 -0.369151 0.752686
vn -0.545153 -0.369151 0.752686
vn -0.806736 -0.418624 0.417050
vn -0.848264 -0.103733 0.519315
vn 0.000000 -0.365425 0.930841
vn 0.000000 0.277726 0.960660
vn 0.880363 0.399430 0.255765
vn 0.685129 0.552770 0.474388
vn 0.480345 0.674580 0.560545
vn 0.829642 0.557593 -0.028000
vn -0.829642 0.557593 -0.028000
vn -0.480345 0.674580 0.560545
vn -0.685129 0.552770 0.474388
vn -0.880363 0.399430 0.255765
vn -0.591532 -0.100056 -0.800049
vn 0.452037 -0.199140 -0.869486
vn -0.658193 0.671039 0.341305
vn -0.266487 -0.635897 -0.724307
vn 0.658193 0.671039 0.341305
vn 0.266487 -0.635897 -0.724307
vn -0.863264 0.277221 0.421811
vn 0.882364 0.201723 0.425138
vn 0.863264 0.277221 0.421811
vn -0.882364 0.201723 0.425138
vn -0.922803 -0.130876 0.362363
vn 0.922803 -0.130876 0.362363
vn 0.802021 -0.422955 0.421749
vn 0.842488 -0.101066 0.529151
vn -0.000000 -0.184907 -0.982756
vn 0.000000 0.533373 -0.845880
vn -0.646225 -0.430058 0.630431
vn -0.652943 -0.386830 0.651175
vn 0.000000 0.327020 -0.945018
vn 0.646225 -0.430058 0.630431
vn 0.653816 -0.380288 0.654146
vn 0.000000 -0.172687 -0.984977
vn -0.619169 -0.435472 0.653448
vn -0.323872 0.690777 -0.646478
vn -0.366157 0.710597 0.600817
vn -0.809622 0.354198 0.468033
vn 0.809622 0.354198 0.468033
vn 0.000000 -0.361390 0.932415
vn 0.906905 0.269700 -0.323706
vn 0.275892 -0.959676 0.053897
vn -0.870222 -0.262953 0.416617
vn 0.185051 -0.146256 0.971785
vn 0.981619 0.048517 0.184579
vn -0.354569 -0.934960 -0.011401
vn -0.559228 0.824305 -0.088231
vn 0.686095 0.710670 -0.155637
vn -0.567456 -0.027736 -0.822937
vn -0.735798 -0.676831 0.022387
vn 0.406140 0.036843 0.913068
vn 0.000000 0.997943 -0.064111
vn 0.693827 -0.184443 0.696121
vn 0.380888 0.906070 -0.184284
vn -0.985631 -0.130547 0.107189
vn -0.392961 -0.915420 0.087112
vn -0.598603 0.801007 0.007911
vn 0.498122 0.861010 -0.102645
vn 0.669377 0.131878 0.731124
vn -0.567781 -0.207979 -0.796473
vn 0.000000 0.887244 0.461300
vn -0.593515 0.793765 0.132956
vn 0.593515 0.793765 0.132956
vn -0.529084 0.716158 -0.455179
vn 0.690260 -0.617058 0.377864
vn 0.985631 -0.130547 0.107189
vn -0.690260 -0.617058 0.377864
vn 0.323872 0.690777 -0.646478
vn 0.000000 0.790863 -0.611993
vn 0.917729 -0.211587 0.336163
vn 0.366157 0.710597 0.600817
vn 0.796225 0.594062 0.114528
vn 0.262302 0.853761 -0.449765
vn -0.380888 0.906070 -0.184284
vn 0.523169 0.728210 -0.442725
vn -0.918875 -0.201141 0.339428
vn 0.732279 -0.455302 -0.506427
vn 0.000000 0.543782 -0.839227
vn -0.796225 0.594062 0.114528
vn -0.722842 -0.448847 -0.525391
vn -0.939621 0.285129 0.189245
vn -0.260203 0.850912 -0.456337
vn 0.756810 -0.358394 0.546619
vn 0.334098 0.467795 -0.818258
vn -0.137519 0.502632 -0.853493
vn -0.756057 -0.364497 0.543618
vn 0.392961 -0.915420 0.087112
vn 0.598603 0.801007 0.007911
vn -0.498122 0.861010 -0.102645
vn -0.669377 0.131878 0.731124
vn 0.567781 -0.207979 -0.796473
vn -0.906905 0.269700 -0.323706
vn -0.275892 -0.959676 0.053897
vn 0.939621 0.285129 0.189245
vn 0.348843 -0.927592 -0.133721
vn -0.185051 -0.146256 0.971785
vn -0.981619 0.048517 0.184579
vn 0.354569 -0.934960 -0.011401
vn 0.559228 0.824305 -0.088231
vn -0.686095 0.710670 -0.155637
vn 0.567456 -0.027736 -0.822937
vn 0.735798 -0.676831 0.022387
vn -0.406140 0.036843 0.913068
vn 0.654771 -0.417285 0.630197
vn -0.550142 -0.831678 -0.075202
usemtl E_main
s off
f 1/1/1 2/2/1 3/3/1
f 2/2/2 4/4/2 3/3/2
f 3/3/3 4/4/3 5/1/3
f 4/4/4 6/2/4 5/1/4
f 7/5/5 8/6/5 9/7/5
f 8/6/6 10/8/6 9/7/6
f 9/7/7 10/8/7 11/7/7
f 10/8/8 12/6/8 11/7/8
f 11/7/9 12/6/9 13/9/9
f 14/10/10 15/10/10 16/11/10
f 15/10/11 17/12/11 16/11/11
f 16/11/12 17/12/12 18/10/12
f 19/13/13 20/14/13 21/15/13
f 20/14/14 22/13/14 21/15/14
f 21/15/15 22/13/15 23/14/15
f 24/16/16 25/17/16 26/18/16
f 25/17/17 27/19/17 26/18/17
f 26/18/18 27/19/18 28/20/18
f 29/21/19 30/22/19 31/23/19
f 30/22/20 32/24/20 31/23/20
f 31/23/21 32/24/21 33/22/21
f 34/25/22 35/26/22 36/27/22
f 35/26/23 37/28/23 36/27/23
f 38/29/24 39/30/24 40/31/24
f 39/30/25 41/32/25 40/31/25
f 42/33/26 43/34/26 44/33/26
f 43/34/27 45/35/27 44/33/27
f 46/36/28 47/37/28 48/38/28
f 47/37/29 49/39/29 48/38/29
f 50/39/30 51/37/30 52/38/30
f 51/37/31 53/36/31 52/38/31
f 54/35/32 55/34/32 56/33/32
f 55/34/33 57/33/33 56/33/33
f 58/40/34 59/41/34 60/42/34
f 59/41/35 61/40/35 60/42/35
f 62/43/36 63/44/36 64/45/36
f 63/44/37 65/46/37 64/45/37
f 66/43/38 67/45/38 68/44/38
f 67/45/39 69/46/39 68/44/39
f 70/47/40 71/48/40 72/49/40
f 71/48/41 73/47/41 72/49/41
f 74/47/42 75/49/42 76/48/42
f 75/49/43 77/47/43 76/48/43
f 78/50/44 79/51/44 80/52/44
f 79/51/45 81/53/45 80/52/45
f 82/25/46 83/27/46 84/26/46
f 83/27/47 85/28/47 84/26/47
f 86/54/48 87/55/48 88/56/48
f 87/55/49 89/57/49 88/56/49
f 90/58/50 91/59/50 92/60/50
f 92/60/51 93/61/51 90/58/51
f 94/62/52 95/63/52 96/64/52
f 96/64/52 97/65/52 94/62/52
f 98/60/53 99/59/53 100/58/53
f 100/58/54 101/61/54 98/60/54
f 102/66/55 103/67/55 104/68/55
f 104/68/55 105/69/55 102/66/55
f 106/21/56 107/23/56 108/22/56
f 109/70/57 110/71/57 111/72/57
f 112/73/58 113/74/58 114/75/58
f 115/76/59 116/77/59 117/78/59
f 118/76/60 119/78/60 120/77/60
f 121/79/61 122/7/61 123/7/61
f 124/80/62 125/81/62 126/82/62
f 127/83/63 128/84/63 129/85/63
f 130/86/64 131/87/64 132/88/64
f 133/89/65 134/90/65 135/91/65
f 136/92/66 137/93/66 138/94/66
f 139/80/67 140/81/67 141/82/67
f 142/80/68 143/81/68 144/82/68
f 145/84/69 146/83/69 147/85/69
f 148/95/70 149/96/70 150/97/70
f 151/98/71 152/99/71 153/100/71
f 154/99/72 155/100/72 156/98/72
f 157/101/73 158/102/73 159/103/73
f 160/15/74 161/14/74 162/13/74
f 163/104/75 164/105/75 165/106/75
f 166/107/76 167/108/76 168/109/76
f 169/100/77 170/99/77 171/98/77
f 172/95/78 173/97/78 174/96/78
f 175/95/79 176/97/79 177/96/79
f 178/98/80 179/100/80 180/99/80
f 181/95/81 182/97/81 183/96/81
f 184/110/82 185/111/82 186/112/82
f 187/113/83 188/114/83 189/115/83
f 190/115/84 191/114/84 192/113/84
f 193/116/85 194/117/85 195/118/85
f 196/119/86 197/120/86 198/121/86
f 199/107/87 200/109/87 201/108/87
f 202/122/88 203/121/88 204/123/88
f 205/72/89 206/71/89 207/70/89
f 208/124/90 209/125/90 210/126/90
f 211/127/91 212/128/91 213/129/91
f 214/75/92 215/74/92 216/73/92
f 217/130/93 218/131/93 219/132/93
f 220/133/94 221/134/94 222/135/94
f 223/105/95 224/104/95 225/106/95
f 226/117/96 227/116/96 228/118/96
f 229/127/97 230/129/97 231/128/97
f 232/136/98 233/137/98 234/138/98
f 235/139/99 236/140/99 237/141/99
f 238/130/100 239/132/100 240/131/100
f 241/136/101 242/138/101 243/137/101
f 244/139/99 245/141/99 246/140/99
f 247/142/102 248/143/102 249/144/102
f 250/134/103 251/133/103 252/135/103
f 253/145/104 254/146/104 255/147/104
f 256/148/105 257/149/105 258/150/105
f 259/148/106 260/149/106 261/150/106
f 262/145/107 263/147/107 264/146/107
f 265/100/108 266/98/108 267/99/108
f 268/95/109 269/96/109 270/97/109
f 271/95/110 272/96/110 273/97/110
f 274/98/111 275/99/111 276/100/111
f 277/95/112 278/96/112 279/97/112
f 280/80/113 281/82/113 282/81/113
f 283/83/114 284/85/114 285/84/114
f 286/142/115 287/144/115 288/143/115
f 289/151/116 290/152/116 291/153/116
f 292/89/117 293/91/117 294/90/117
f 295/92/118 296/94/118 297/93/118
f 298/80/119 299/82/119 300/81/119
f 301/80/120 302/82/120 303/81/120
f 304/84/121 305/85/121 306/83/121
f 307/95/122 308/97/122 309/96/122
f 310/98/123 311/100/123 312/99/123
f 313/99/124 314/98/124 315/100/124
f 316/87/125 317/86/125 318/88/125
f 319/151/126 320/153/126 321/152/126
o polygon1
v -0.030474 0.832971 0.322014
v 0.000000 0.814686 0.335220
v 0.000000 0.830938 0.370774
v 0.030474 0.832971 0.322014
v 0.000000 0.887317 0.352490
v 0.140183 0.762371 0.156435
v 0.000000 0.685169 0.265637
v 0.001015 0.748657 0.016254
v -0.140183 0.762371 0.156435
v -0.140183 0.762371 0.156435
v 0.000000 0.685169 0.265637
v -0.142723 0.853286 0.242780
v 0.000000 0.828398 0.344361
v 0.140183 0.762371 0.156435
v 0.142723 0.853286 0.242780
v 0.000000 0.685169 0.265637
v 0.000000 0.828398 0.344361
v 0.183863 1.047308 0.214337
v 0.000000 1.092510 0.367726
v 0.142723 0.853286 0.242780
v 0.000000 0.828398 0.344361
v 0.000000 0.828398 0.344361
v 0.000000 1.092510 0.367726
v -0.142723 0.853286 0.242780
v -0.183863 1.047308 0.214337
v 0.234654 0.888332 0.103107
v 0.140183 0.762371 0.156435
v 0.001015 0.748657 0.016254
v -0.140183 0.762371 0.156435
v -0.233639 0.887317 0.101074
v 0.001015 0.748657 0.016254
v 0.062472 0.799955 0.040125
v 0.000000 0.284937 0.013206
v -0.062472 0.799955 0.040125
v 0.000000 0.887317 0.352490
v -0.030474 0.832971 0.322014
v 0.000000 0.830938 0.370774
vt 0.855469 -0.863281
vt 0.996094 -0.933594
vt 0.994141 -0.800781
vt 0.990234 -0.599609
vt 0.197266 -1.115234
vt 0.082031 -1.378906
vt 0.324219 -1.250000
vt 0.437500 -1.109375
vt 0.017578 -1.277344
vt 0.458984 -0.494141
vt 0.058594 -0.509766
vt 0.025391 -0.041016
vt -0.783203 0.197266
vt -0.091797 -0.779297
vt -0.753906 -0.945312
vt 0.990234 -0.820312
vt 0.773438 -0.921875
vt 1.000000 -1.259766
vt 1.066406 -0.984375
vt 1.000000 -1.117188
vt 0.933594 -0.984375
vn -0.587429 -0.736026 0.336443
vn 0.587429 -0.736026 0.336443
vn 0.832299 0.171009 0.527289
vn 0.324203 -0.917061 -0.232144
vn -0.322169 -0.917106 -0.234786
vn -0.685416 -0.511416 0.518323
vn -0.577686 -0.393172 0.715328
vn 0.685416 -0.511416 0.518323
vn 0.577686 -0.393172 0.715328
vn 0.637225 -0.022183 0.770358
vn 0.586614 -0.071367 0.806716
vn -0.586614 -0.071367 0.806716
vn -0.637225 -0.022183 0.770358
vn 0.573328 -0.644286 -0.506154
vn -0.566890 -0.648888 -0.507523
vn 0.000000 0.052195 -0.998637
vn -0.832299 0.171009 0.527289
usemtl E_face
s off
f 322/154/127 323/155/127 324/156/127
f 323/155/128 325/154/128 324/156/128
f 324/156/129 325/154/129 326/157/129
f 327/158/130 328/159/130 329/160/130
f 328/159/131 330/158/131 329/160/131
f 331/161/132 332/162/132 333/163/132
f 332/162/133 334/164/133 333/163/133
f 335/161/134 336/163/134 337/162/134
f 336/163/135 338/164/135 337/162/135
f 339/165/136 340/166/136 341/167/136
f 340/166/137 342/168/137 341/167/137
f 343/168/138 344/166/138 345/167/138
f 344/166/139 346/165/139 345/167/139
f 347/169/140 348/170/140 349/171/140
f 350/170/141 351/169/141 352/171/141
f 353/172/142 354/173/142 355/174/142
f 356/157/143 357/154/143 358/156/143
