# Blender v2.68 (sub 0) OBJ File: ''
# www.blender.org
mtllib cubeTextured.mtl
o Cube
v 1.000000 -1.000000 -1.000000
v 1.000000 -1.000000 1.000000
v -1.000000 -1.000000 1.000000
v -1.000000 -1.000000 -1.000000
v 1.000000 1.000000 -0.999999
v 0.999999 1.000000 1.000001
v -1.000000 1.000000 1.000000
v -1.000000 1.000000 -1.000000
vt 0.000000 0.334353
vt 0.332314 0.333333
vt 0.001019 0.666667
vt 1.000000 0.001019
vt 0.998981 0.333333
vt 0.667686 0.000000
vt 1.000000 0.665647
vt 0.666667 0.334353
vt 0.334353 0.666667
vt 0.333333 0.334353
vt 0.666667 0.665647
vt 0.333333 0.332314
vt 0.001020 0.333333
vt 0.332314 0.000000
vt 0.333333 0.001019
vt 0.665647 0.000000
vt 0.334353 0.333333
vt 0.333333 0.665647
vt 0.666667 0.332314
vt 0.667686 0.666667
vt 0.665647 0.333333
vt 0.000000 0.001020
vn 0.000000 -1.000000 0.000000
vn -0.000000 1.000000 0.000000
vn 1.000000 -0.000000 0.000000
vn -0.000000 -0.000000 1.000000
vn -1.000000 -0.000000 -0.000000
vn 0.000000 0.000000 -1.000000
vn 1.000000 0.000000 0.000001
usemtl Material
s off
f 1/1/1 2/2/1 4/3/1
f 5/4/2 8/5/2 6/6/2
f 1/5/3 5/7/3 2/8/3
f 2/9/4 6/10/4 3/11/4
f 3/12/5 7/13/5 4/14/5
f 5/15/6 1/16/6 8/17/6
f 2/2/1 3/18/1 4/3/1
f 8/5/2 7/19/2 6/6/2
f 5/7/7 6/20/7 2/8/7
f 6/10/4 7/21/4 3/11/4
f 7/13/5 8/22/5 4/14/5
f 1/16/6 4/19/6 8/17/6
