# Blender v2.64 (sub 2) OBJ File: ''
# www.blender.org
mtllib ground.mtl
o Ground
v 67.461044 1.517044 -105.562096
v 180.929199 -3.991830 -84.467140
v 180.853745 -6.506937 -156.864105
v 107.295868 -0.346342 -56.350651
v 74.161774 -6.091121 47.297138
v 180.861328 -6.317569 9.701084
v -167.497269 2.167226 -22.958689
v -45.428337 -5.415937 -28.761141
v -100.795311 21.905981 -106.664726
v 103.343147 -7.829231 116.826805
v 180.912704 -25.196932 191.506638
v 180.892609 -8.083164 87.227493
v -7.196477 17.289627 -114.596001
v -115.582558 24.832102 -156.889694
v 84.688011 -3.140719 -156.931839
v -17.504442 6.642638 -81.137314
v -167.627762 18.321865 -115.261795
v -167.677841 9.940045 191.610535
v -80.003761 -6.812046 191.475861
v -109.987816 -6.000302 133.928101
v 69.514191 -7.020365 191.482651
v -167.478439 -6.462636 20.768759
v -167.513550 -6.630702 102.676773
v -12.497981 20.903578 -156.952621
v -167.536209 13.355860 -156.942291
vt 2.710463 4.915531
vt 6.590713 3.889963
vt 6.643300 6.397399
vt 4.071820 2.996038
vt 2.824573 -0.488960
vt 6.198736 0.955855
vt -5.581805 1.910368
vt -1.293314 1.842670
vt -3.281729 4.926178
vt 4.645561 -3.523148
vt 6.643570 -5.691536
vt 6.593324 -2.040560
vt 0.021109 4.988062
vt -3.765416 6.602787
vt 3.307981 6.459544
vt -0.321026 3.404368
vt -5.577979 5.173633
vt -5.511200 -5.798753
vt -2.426927 -5.716573
vt -3.487388 -3.738104
vt 2.743150 -5.684102
vt -5.516447 0.288964
vt -5.491031 -2.667131
vt -0.151655 6.518710
vt -5.659844 6.798754
vn 0.099399 0.994842 0.018983
vn 0.055361 0.998444 -0.006134
vn 0.049471 0.997681 -0.046632
vn 0.024049 0.999176 0.032594
vn 0.008209 0.999268 0.037172
vn 0.028230 0.998901 0.036683
vn 0.040407 0.975860 0.214576
vn 0.003937 0.988586 0.150456
vn 0.020051 0.986724 0.161016
vn 0.049562 0.997467 0.050600
vn 0.111911 0.987213 0.113315
vn 0.032411 0.996521 0.076418
vn 0.135472 0.973632 0.183477
vn -0.050478 0.998383 0.025788
vn 0.108371 0.993042 -0.045503
vn 0.060976 0.969787 0.236122
vn -0.113254 0.991394 0.065157
vn 0.137913 0.981414 -0.133244
vn 0.069857 0.997223 -0.025239
vn 0.057924 0.996979 -0.051729
vn 0.059816 0.998047 0.016297
vn 0.021760 0.996948 0.074740
vn 0.024140 0.997711 -0.062685
vn 0.130955 0.989044 0.067995
vn -0.214118 0.969878 -0.116001
usemtl Grass
s 1
f 1/1/1 2/2/2 3/3/3
f 4/4/4 1/1/1 5/5/5
f 4/4/4 6/6/6 2/2/2
f 7/7/7 8/8/8 9/9/9
f 10/10/10 11/11/11 12/12/12
f 2/2/2 1/1/1 4/4/4
f 9/9/9 13/13/13 14/14/14
f 13/13/13 1/1/1 15/15/15
f 8/8/8 5/5/5 16/16/16
f 5/5/5 6/6/6 4/4/4
f 17/17/17 9/9/9 14/14/14
f 18/18/18 19/19/19 20/20/20
f 20/20/20 19/19/19 8/8/8
f 19/19/19 10/10/10 5/5/5
f 21/21/21 11/11/11 10/10/10
f 22/22/22 23/23/23 8/8/8
f 1/1/1 3/3/3 15/15/15
f 13/13/13 24/24/24 14/14/14
f 16/16/16 13/13/13 9/9/9
f 5/5/5 10/10/10 6/6/6
f 6/6/6 10/10/10 12/12/12
f 24/24/24 13/13/13 15/15/15
f 16/16/16 1/1/1 13/13/13
f 5/5/5 1/1/1 16/16/16
f 25/25/25 17/17/17 14/14/14
f 17/17/17 7/7/7 9/9/9
f 7/7/7 22/22/22 8/8/8
f 8/8/8 16/16/16 9/9/9
f 23/23/23 20/20/20 8/8/8
f 18/18/18 20/20/20 23/23/23
f 19/19/19 21/21/21 10/10/10
f 19/19/19 5/5/5 8/8/8
