# Blender v2.68 (sub 0) OBJ File: ''
# www.blender.org
mtllib ground.mtl
o Ground
v 11.617238 0.261242 -18.178492
v 31.157206 -0.687422 -14.545801
v 31.144213 -1.120542 -27.013037
v 12.771148 -1.048930 8.144880
v 18.477058 -0.059644 -9.703955
v 31.145517 -1.087927 1.670591
v -28.844139 0.373210 -3.953638
v -7.823060 -0.932661 -4.952859
v -17.357620 3.772352 -18.368372
v 17.796373 -1.348242 20.118349
v 31.154366 -4.339073 32.978710
v 31.150906 -1.391972 15.021152
v -1.239281 2.977385 -19.734190
v -19.904081 4.276248 -27.017443
v 14.583836 -0.540857 -27.024700
v -3.014381 1.143904 -13.972383
v -28.866610 3.155143 -19.848845
v -28.875233 1.711747 32.996601
v -13.777178 -1.173074 32.973412
v -18.940630 -1.033288 23.063305
v 11.970804 -1.208948 32.974579
v -28.840897 -1.112908 3.576518
v -28.846941 -1.141848 17.681620
v -2.152235 3.599730 -27.028280
v -28.850843 2.299963 -27.026501
vt 2.710463 4.915531
vt 6.590713 3.889963
vt 6.643300 6.397399
vt 4.071820 2.996038
vt 2.824573 -0.488960
vt 6.198736 0.955855
vt -5.581805 1.910368
vt -1.293314 1.842670
vt -3.281729 4.926178
vt 4.645561 -3.523148
vt 6.643570 -5.691536
vt 6.593324 -2.040560
vt 0.021109 4.988062
vt -3.765416 6.602787
vt 3.307981 6.459544
vt -0.321026 3.404368
vt -5.577979 5.173633
vt -5.511200 -5.798753
vt -2.426927 -5.716573
vt -3.487388 -3.738104
vt 2.743150 -5.684102
vt -5.516447 0.288964
vt -5.491031 -2.667131
vt -0.151655 6.518710
vt -5.659844 6.798754
vn 0.099399 0.994842 0.018983
vn 0.055361 0.998444 -0.006134
vn 0.049471 0.997681 -0.046632
vn 0.024049 0.999176 0.032594
vn 0.008209 0.999268 0.037172
vn 0.028230 0.998901 0.036683
vn 0.040407 0.975860 0.214576
vn 0.003937 0.988586 0.150456
vn 0.020051 0.986724 0.161016
vn 0.049562 0.997467 0.050600
vn 0.111911 0.987213 0.113315
vn 0.032411 0.996521 0.076418
vn 0.135472 0.973632 0.183477
vn -0.050478 0.998383 0.025788
vn 0.108371 0.993042 -0.045503
vn 0.060976 0.969787 0.236122
vn -0.113254 0.991394 0.065157
vn 0.137913 0.981414 -0.133244
vn 0.069857 0.997223 -0.025239
vn 0.057924 0.996979 -0.051729
vn 0.059816 0.998047 0.016297
vn 0.021760 0.996948 0.074740
vn 0.024140 0.997711 -0.062685
vn 0.130955 0.989044 0.067995
vn -0.214118 0.969878 -0.116001
usemtl Grass
s 1
f 1/1/1 2/2/2 3/3/3
f 5/4/4 1/1/1 4/5/5
f 5/4/4 6/6/6 2/2/2
f 7/7/7 8/8/8 9/9/9
f 10/10/10 11/11/11 12/12/12
f 2/2/2 1/1/1 5/4/4
f 9/9/9 13/13/13 14/14/14
f 13/13/13 1/1/1 15/15/15
f 8/8/8 4/5/5 16/16/16
f 4/5/5 6/6/6 5/4/4
f 17/17/17 9/9/9 14/14/14
f 18/18/18 19/19/19 20/20/20
f 20/20/20 19/19/19 8/8/8
f 19/19/19 10/10/10 4/5/5
f 21/21/21 11/11/11 10/10/10
f 22/22/22 23/23/23 8/8/8
f 1/1/1 3/3/3 15/15/15
f 13/13/13 24/24/24 14/14/14
f 16/16/16 13/13/13 9/9/9
f 4/5/5 10/10/10 6/6/6
f 6/6/6 10/10/10 12/12/12
f 24/24/24 13/13/13 15/15/15
f 16/16/16 1/1/1 13/13/13
f 4/5/5 1/1/1 16/16/16
f 25/25/25 17/17/17 14/14/14
f 17/17/17 7/7/7 9/9/9
f 7/7/7 22/22/22 8/8/8
f 8/8/8 16/16/16 9/9/9
f 23/23/23 20/20/20 8/8/8
f 18/18/18 20/20/20 23/23/23
f 19/19/19 21/21/21 10/10/10
f 19/19/19 4/5/5 8/8/8
