# Blender v2.68 (sub 0) OBJ File: 'brick.blend'
# www.blender.org
mtllib brick.mtl
o Brick
v 0.600000 -0.300000 -0.300000
v 0.600000 -0.300000 0.300000
v -0.600000 -0.300000 0.300000
v -0.600000 -0.300000 -0.300000
v 0.600000 0.300000 -0.300000
v 0.600000 0.220000 0.300000
v -0.600000 0.300000 0.300000
v -0.600000 0.300000 -0.300000
v 0.540000 0.340000 -0.270000
v 0.520000 0.260000 0.200000
v -0.540000 0.340000 0.270000
v -0.540000 0.340000 -0.270000
v 0.540000 -0.340000 -0.270000
v 0.540000 -0.340000 0.270000
v -0.540000 -0.340000 0.270000
v -0.540000 -0.340000 -0.270000
v 0.410000 0.300000 0.300000
v 0.432000 0.340000 0.270000
v 0.600000 0.300000 0.100000
v 0.540000 0.340000 0.048000
v 0.432000 0.340000 0.088000
v 0.600000 0.240000 0.210000
v 0.540000 0.170000 0.300000
v 0.392000 0.340000 0.159000
v -0.264944 0.300000 -0.300000
v -0.218944 0.340000 -0.270000
v -0.340136 0.240000 -0.300000
v -0.327136 0.340000 -0.220000
v -0.411229 0.300000 -0.300000
v -0.434729 0.340000 -0.270000
v -0.550000 0.070000 0.300000
v -0.540000 0.150000 0.300000
v -0.600000 -0.150000 0.300000
v -0.600000 0.125000 0.270000
v -0.600000 0.187500 0.240000
v -0.600000 -0.037500 0.270000
v 0.448545 -0.223091 -0.300000
v 0.336545 -0.262091 -0.300000
v 0.224545 -0.249091 -0.300000
v 0.252545 -0.210091 -0.300000
v 0.182545 -0.171091 -0.300000
v 0.224545 -0.106091 -0.300000
v 0.280545 -0.106091 -0.300000
v 0.336545 -0.067091 -0.300000
v 0.434545 -0.106091 -0.300000
v 0.406545 -0.158091 -0.300000
v 0.322545 -0.171091 -0.250000
v 0.498486 0.340000 0.063376
v 0.540000 0.340000 -0.052467
vt 0.517006 0.644221
vt 0.052049 0.692050
vt 0.073702 0.674160
vt 0.093232 0.864017
vt 0.467302 0.884272
vt 0.075963 0.924528
vt 0.076492 0.701282
vt 0.540920 0.876700
vt 0.205785 0.911174
vt 0.519267 0.894590
vt 0.494954 0.658236
vt 0.098015 0.910513
vt 0.117770 0.113796
vt 0.143290 0.159788
vt 0.112370 0.157739
vt 0.681093 0.227232
vt 0.750856 0.234807
vt 0.704106 0.262081
vt 0.516477 0.867467
vt 0.507806 0.783181
vt 0.149105 0.917004
vt 0.100805 0.937636
vt 0.072461 0.103479
vt 0.082724 0.093074
vt 0.154591 0.087195
vt 0.176296 0.106232
vt 0.095971 0.161017
vt 0.111993 0.088079
vt 0.163795 0.141700
vt 0.171491 0.119865
vt 0.152085 0.621147
vt 0.196319 0.581865
vt 0.191574 0.643698
vt 0.241922 0.616411
vt 0.257649 0.640215
vt 0.551119 0.268576
vt 0.646115 0.236374
vt 0.602645 0.269549
vt 0.674773 0.257355
vt 0.442033 0.707144
vt 0.178500 0.882656
vt 0.492164 0.631114
vt 0.487104 0.739951
vt 0.503802 0.744253
vt 0.455005 0.177640
vt 0.485931 0.174039
vt 0.490049 0.201183
vt 0.444762 0.210267
vt 0.413837 0.213867
vt 0.458550 0.229617
vt 0.419675 0.166513
vt 0.444280 0.128405
vt 0.453376 0.145444
vt 0.479897 0.127115
vt 0.495887 0.153830
vt 0.373560 0.678911
vt 0.360395 0.710807
vt 0.385963 0.692906
vt 0.379259 0.734319
vt 0.424210 0.744966
vt 0.400957 0.732086
vt 0.460627 0.725948
vt 0.461388 0.680057
vt 0.447705 0.706916
vt 0.174260 0.890923
vt 0.524977 0.721714
vt 0.416438 0.669410
vt 0.125131 0.647201
vt 0.512491 0.828721
vt 0.537732 0.845702
vt 0.086169 0.833419
vt 0.058027 0.750170
vt 0.225203 0.924839
vt 0.141594 0.933440
vt 0.190375 0.780606
vt 0.424681 0.888657
vt 0.400767 0.656178
vt 0.269695 0.904600
vt 0.224683 0.885736
vt 0.189014 0.881574
vt 0.168288 0.680093
vt 0.477421 0.898894
vt 0.210966 0.866590
vt 0.192203 0.912571
vt 0.174267 0.738212
vt 0.460362 0.733059
vt 0.222413 0.897717
vt 0.138804 0.906317
vt 0.453107 0.662541
vn -0.000000 -0.600000 0.800000
vn -0.000000 -0.000000 1.000000
vn -0.554700 0.832050 -0.000000
vn 0.000000 0.600000 -0.800000
vn 0.554700 -0.832050 0.000000
vn -0.554700 -0.832050 -0.000000
vn 0.564965 0.799603 -0.203591
vn -0.761939 -0.304776 0.571454
vn 0.000000 -1.000000 -0.000000
vn 0.554700 0.832050 0.000001
vn -0.495171 0.594205 0.633819
vn -0.000000 0.600000 0.800000
vn 0.163280 0.864026 0.476235
vn 0.694084 0.146825 0.704763
vn 0.212000 0.953998 0.212000
vn 0.452460 0.854577 0.254908
vn 0.176489 0.861266 0.476520
vn 0.633724 0.633724 0.443607
vn -0.469236 0.588043 -0.658804
vn 0.308949 0.680122 -0.664819
vn -0.749948 0.170443 0.639161
vn -0.514496 0.000000 0.857493
vn -0.465756 0.058220 0.882996
vn -0.533683 0.365954 0.762404
vn -0.000000 1.000000 0.000000
vn 0.000000 -0.600000 -0.800000
vn 0.310268 -0.445513 -0.839793
vn -0.454892 -0.293931 -0.840641
vn -0.522598 0.281399 -0.804801
vn -0.163000 -0.409591 -0.897589
vn -0.158969 0.456528 -0.875392
vn 0.056579 0.487449 -0.871316
vn 0.670997 -0.481741 -0.563638
vn 0.287937 0.516811 -0.806225
vn 0.328664 -0.212368 -0.920261
vn -0.000000 -0.609711 -0.792624
vn -0.000000 -0.000000 -1.000000
vn 0.000000 0.000001 -1.000000
vn -0.273475 0.758313 -0.591754
vn 0.442571 0.524400 -0.727417
vn 0.157622 0.866921 0.472866
vn -0.000001 -0.000000 1.000000
vn 0.000000 0.600001 -0.800000
vn -1.000000 -0.000000 -0.000001
vn 1.000000 -0.000000 0.000001
vn 1.000000 0.000001 0.000001
vn -1.000000 -0.000000 -0.000000
vn -1.000000 -0.000001 -0.000000
vn 1.000000 0.000001 -0.000000
usemtl Stone
s off
f 2/1/1 3/2/1 15/3/1
f 32/4/2 17/5/2 7/6/2
f 8/6/3 7/2/3 11/7/3
f 5/8/4 25/9/4 9/10/4
f 1/8/5 2/1/5 14/11/5
f 3/2/6 4/6/6 16/12/6
f 10/13/7 24/14/7 18/15/7
f 32/16/8 7/17/8 35/18/8
f 16/12/9 13/19/9 14/11/9
f 5/8/10 9/19/10 49/20/10
f 29/21/4 8/6/4 12/22/4
f 23/23/11 6/24/11 10/13/11
f 7/6/12 17/5/12 11/22/12
f 19/25/13 20/26/13 10/13/13
f 18/15/14 17/27/14 10/13/14
f 6/24/15 22/28/15 10/13/15
f 21/29/16 24/14/16 10/13/16
f 20/26/17 48/30/17 10/13/17
f 17/27/18 23/23/18 10/13/18
f 25/31/19 27/32/19 28/33/19
f 29/34/20 30/35/20 28/33/20
f 33/36/21 31/37/21 36/38/21
f 36/38/22 31/37/22 34/39/22
f 31/37/23 32/16/23 34/39/23
f 34/39/24 32/16/24 35/18/24
f 24/40/25 28/41/25 11/7/25
f 4/2/26 1/1/26 13/42/26
f 49/20/25 48/43/25 20/44/25
f 47/45/27 43/46/27 44/47/27
f 46/48/28 37/49/28 47/45/28
f 47/45/29 45/50/29 46/48/29
f 47/45/30 44/47/30 45/50/30
f 37/49/31 38/51/31 47/45/31
f 47/45/32 38/51/32 39/52/32
f 47/45/33 39/52/33 40/53/33
f 47/45/34 40/53/34 41/54/34
f 47/45/35 41/54/35 42/55/35
f 47/45/36 42/55/36 43/46/36
f 39/56/37 41/57/37 40/58/37
f 42/59/37 44/60/37 43/61/37
f 45/62/37 37/63/37 46/64/37
f 5/8/37 45/62/37 44/60/37
f 1/1/37 37/63/37 45/62/37
f 41/57/37 27/65/37 42/59/37
f 27/65/37 25/9/37 42/59/37
f 12/12/25 11/7/25 28/41/25
f 25/9/37 5/8/37 44/60/37
f 19/66/10 5/8/10 49/20/10
f 42/59/37 25/9/37 44/60/37
f 1/1/37 38/67/37 37/63/37
f 5/8/37 1/1/37 45/62/37
f 4/2/37 8/6/37 29/21/37
f 4/2/38 39/56/38 38/67/38
f 39/56/37 4/2/37 41/57/37
f 41/57/37 4/2/37 27/65/37
f 27/65/37 4/2/37 29/21/37
f 26/68/39 25/31/39 28/33/39
f 27/32/40 29/34/40 28/33/40
f 1/1/38 4/2/38 38/67/38
f 22/28/41 19/25/41 10/13/41
f 14/42/1 2/1/1 15/3/1
f 23/69/42 17/5/42 2/1/42
f 2/1/2 6/70/2 23/69/2
f 31/71/2 2/1/2 17/5/2
f 3/2/2 2/1/2 33/72/2
f 32/4/2 31/71/2 17/5/2
f 33/72/2 2/1/2 31/71/2
f 12/12/3 8/6/3 11/7/3
f 25/9/4 26/73/4 9/10/4
f 13/19/5 1/8/5 14/11/5
f 15/7/6 3/2/6 16/12/6
f 15/7/9 16/12/9 14/11/9
f 30/74/43 29/21/43 12/22/43
f 36/75/44 8/76/44 4/77/44
f 19/78/45 22/79/45 1/77/45
f 22/79/46 6/80/46 2/81/46
f 17/5/12 18/82/12 11/22/12
f 48/30/17 21/29/17 10/13/17
f 8/76/47 35/83/47 7/84/47
f 1/77/45 5/76/45 19/78/45
f 36/38/47 34/39/47 35/18/47
f 33/85/48 36/75/48 4/77/48
f 36/75/47 35/83/47 8/76/47
f 16/3/26 4/2/26 13/42/26
f 49/20/25 21/86/25 48/43/25
f 49/20/25 9/19/25 21/86/25
f 9/19/25 26/87/25 21/86/25
f 28/41/25 30/88/25 12/12/25
f 21/86/25 26/87/25 24/40/25
f 22/79/49 2/81/49 1/77/49
f 4/77/47 3/81/47 33/85/47
f 18/89/25 24/40/25 11/7/25
f 20/44/10 19/66/10 49/20/10
f 26/87/25 28/41/25 24/40/25
