# Blender v2.64 (sub 2) OBJ File: ''
# www.blender.org
mtllib plane.mtl
o Cube
v 80.554367 -0.591809 -59.180882
v 80.554367 -0.591809 59.180885
v -80.554375 -0.591809 59.180874
v -80.554337 -0.591809 -59.180908
v 80.554405 0.591809 -59.180855
v 80.554314 0.591809 59.180920
v -80.554398 0.591809 59.180862
v -80.554359 0.591809 -59.180885
vn 0.000000 -1.000000 0.000000
vn 0.000000 1.000000 0.000000
vn 1.000000 0.000006 0.000000
vn -0.000000 -0.000010 1.000000
vn -1.000000 -0.000019 -0.000000
vn 0.000000 0.000021 -1.000000
usemtl Material
s off
f 1//1 2//1 3//1
f 1//1 3//1 4//1
f 5//2 8//2 7//2
f 5//2 7//2 6//2
f 1//3 5//3 6//3
f 1//3 6//3 2//3
f 2//4 6//4 7//4
f 2//4 7//4 3//4
f 3//5 7//5 8//5
f 3//5 8//5 4//5
f 5//6 1//6 4//6
f 5//6 4//6 8//6
