# Blender v2.64 (sub 2) OBJ File: ''
# www.blender.org
mtllib wall.mtl
o Cube_Cube.001
v -5.517723 -0.847518 -7.128328
v -5.517723 -0.847524 5.864614
v -5.517723 0.812744 5.864614
v -5.517723 0.812748 -7.128327
v 5.727405 0.812748 -7.128327
v 5.727405 -0.847518 -7.128328
v 5.727405 0.812744 5.864614
v 5.727405 -0.847524 5.864614
v 5.727405 0.812744 5.864614
v -5.517723 0.812744 5.864614
v 5.727405 0.812748 -7.128327
v 5.727405 0.812744 5.864614
v 5.727405 0.812748 -7.128327
v -5.517723 0.812748 -7.128327
v -5.517723 0.812748 -7.128327
v 5.727405 0.812748 -7.128327
v -5.517723 0.812748 -7.128327
v -5.517723 0.812744 5.864614
v -3.982629 0.807487 4.090923
v -3.982629 0.807490 -5.354636
v -5.517723 0.812744 5.864614
v 5.727405 0.812744 5.864614
v 4.192310 0.458637 4.090923
v -3.982629 0.458637 4.090923
v 4.192310 0.807487 4.090923
v 5.727405 0.812748 -7.128327
v 5.727405 0.812744 5.864614
v -3.982629 0.807490 -5.354636
v -5.517723 0.812744 5.864614
v -3.982629 0.807487 4.090923
v -5.517723 0.812748 -7.128327
v 4.192310 0.458639 -5.354636
v -3.982629 0.458639 -5.354636
v 4.192310 0.807490 -5.354636
v 4.192310 0.807490 -5.354636
v 4.192310 0.807487 4.090923
vt 1.445893 -0.489493
vt 0.445893 -0.489493
vt 0.445893 0.510507
vt 1.445893 0.510507
vt 0.540534 0.510507
vt 8.608288 0.510507
vt 8.608288 -0.489493
vt 0.540534 -0.489493
vt -0.554107 0.510507
vt -0.554107 -0.489493
vt -7.459466 -0.489493
vt 0.608288 -0.489493
vt 0.608288 0.510507
vt -7.459466 0.510507
vt 0.540534 0.445893
vt 0.540534 1.445893
vt 8.608288 1.445893
vt 8.608288 0.445893
vt 0.608288 0.445893
vt -7.459466 0.445893
vt 0.608288 -0.554107
vt 0.641878 0.582404
vt 0.641878 1.309381
vt -0.459466 1.445893
vt -0.459466 0.445893
vt 0.506943 0.297223
vt -5.358122 0.297223
vt -5.358122 0.507339
vt 0.506943 0.507339
vt 0.641878 0.309381
vt 7.608288 0.445893
vt 0.506943 0.582404
vt 0.506943 1.309381
vt -5.358122 1.309381
vt -5.358122 0.582404
vt 0.582404 0.297223
vt 1.309381 0.297223
vt 1.309381 0.507339
vt 0.582404 0.507339
vt 0.641878 0.297223
vt 6.506944 0.297223
vt 6.506944 0.507339
vt 0.641878 0.507339
vt 0.309381 0.297223
vt -0.417596 0.297223
vt -0.417596 0.507339
vt 0.309381 0.507339
vt 6.506944 0.309381
vt 0.506943 0.309381
vt 0.506943 -0.417596
vt 1.608288 -0.554107
vt 1.608288 0.445893
vt -6.459466 0.445893
vn -1.000000 0.000000 -0.000000
vn 0.000000 0.000000 -1.000000
vn 1.000000 -0.000000 0.000000
vn 0.000000 -0.000000 1.000000
vn -0.000000 -1.000000 -0.000000
vn 0.000000 0.000000 0.000000
vn 0.003425 0.999994 0.000000
vn -0.000000 0.999996 0.002964
vn -0.000000 1.000000 0.000000
vn -0.003425 0.999994 0.000000
vn 0.000000 0.999996 -0.002964
usemtl tex
s off
f 1/1/1 2/2/1 3/3/1
f 1/1/1 3/3/1 4/4/1
f 4/5/2 5/6/2 6/7/2
f 6/7/2 1/8/2 4/5/2
f 5/3/3 7/9/3 8/10/3
f 5/3/3 8/10/3 6/2/3
f 2/11/4 8/12/4 7/13/4
f 2/11/4 7/13/4 3/14/4
f 2/15/5 1/16/5 6/17/5
f 2/15/5 6/17/5 8/18/5
f 9/19/6 10/20/6 3/20/6
f 9/19/6 3/20/6 7/19/6
f 11/19/6 12/21/6 9/21/6
f 11/19/6 9/21/6 13/19/6
f 13/19/6 9/21/6 7/21/6
f 13/19/6 7/21/6 5/19/6
f 10/15/6 14/16/6 4/16/6
f 10/15/6 4/16/6 3/15/6
f 14/15/6 13/18/6 5/18/6
f 14/15/6 5/18/6 4/15/6
f 15/15/6 16/18/6 11/18/6
f 15/15/6 11/18/6 17/15/6
f 12/19/6 18/20/6 10/20/6
f 12/19/6 10/20/6 9/19/6
f 18/15/6 17/16/6 14/16/6
f 18/15/6 14/16/6 10/15/6
f 17/15/6 11/18/6 13/18/6
f 17/15/6 13/18/6 14/15/6
f 19/22/7 20/23/7 15/24/7
f 19/22/7 15/24/7 21/25/7
f 16/19/6 22/21/6 12/21/6
f 16/19/6 12/21/6 11/19/6
f 22/19/6 21/20/6 18/20/6
f 22/19/6 18/20/6 12/19/6
f 21/15/6 15/16/6 17/16/6
f 21/15/6 17/16/6 18/15/6
f 23/26/2 24/27/2 19/28/2
f 23/26/2 19/28/2 25/29/2
f 26/19/6 27/21/6 22/21/6
f 26/19/6 22/21/6 16/19/6
f 20/30/8 16/31/8 15/25/8
f 16/31/6 20/30/6 28/30/6
f 16/31/6 28/30/6 26/31/6
f 21/20/6 22/19/6 27/19/6
f 21/20/6 27/19/6 29/20/6
f 19/22/6 21/25/6 29/25/6
f 19/22/6 29/25/6 30/22/6
f 17/15/6 21/16/6 29/16/6
f 17/15/6 29/16/6 31/15/6
f 23/32/9 32/33/9 33/34/9
f 23/32/9 33/34/9 24/35/9
f 24/36/3 33/37/3 20/38/3
f 24/36/3 20/38/3 19/39/3
f 33/40/4 32/41/4 34/42/4
f 33/40/4 34/42/4 20/43/4
f 32/44/1 23/45/1 25/46/1
f 32/44/1 25/46/1 34/47/1
f 28/30/8 35/48/8 26/31/8
f 35/49/10 36/50/10 27/51/10
f 35/49/10 27/51/10 26/52/10
f 36/32/11 30/35/11 29/53/11
f 36/32/11 29/53/11 27/52/11
f 19/23/6 20/22/6 28/22/6
f 19/23/6 28/22/6 30/23/6
f 20/43/6 34/42/6 35/42/6
f 20/43/6 35/42/6 28/43/6
f 30/28/6 36/29/6 25/29/6
f 30/28/6 25/29/6 19/28/6
f 36/46/6 35/47/6 34/47/6
f 36/46/6 34/47/6 25/46/6
